<svg aria-hidden="true" style="position: absolute; width: 0; height: 0; overflow: hidden;" version="1.1" xmlns="http://www.w3.org/2000/svg" xmlns:xlink="http://www.w3.org/1999/xlink">
<defs>
<symbol id="icon-flag" viewBox="0 0 29 28">
<title>flag</title>
<path d="M5 4c0 0.719-0.391 1.359-1 1.719v19.781c0 0.266-0.234 0.5-0.5 0.5h-1c-0.266 0-0.5-0.234-0.5-0.5v-19.781c-0.609-0.359-1-1-1-1.719 0-1.109 0.891-2 2-2s2 0.891 2 2zM28 5v11.922c0 0.578-0.359 0.797-0.812 1.031-1.766 0.953-3.719 1.813-5.766 1.813-2.875 0-4.25-2.188-7.656-2.188-2.484 0-5.094 1.125-7.25 2.281-0.172 0.094-0.328 0.141-0.516 0.141-0.547 0-1-0.453-1-1v-11.594c0-0.375 0.187-0.641 0.484-0.859 0.375-0.25 0.828-0.469 1.234-0.672 1.969-1 4.359-1.875 6.578-1.875 2.453 0 4.375 0.812 6.547 1.828 0.438 0.219 0.891 0.297 1.375 0.297 2.453 0 5.094-2.125 5.781-2.125 0.547 0 1 0.453 1 1z"></path>
</symbol>
<symbol id="icon-bomb" viewBox="0 0 28 28">
<title>bomb</title>
<path d="M8.922 9.203c-0.203-0.516-0.781-0.75-1.297-0.547-2.25 0.906-4.062 2.719-4.969 4.969-0.203 0.516 0.031 1.094 0.547 1.297 0.125 0.047 0.25 0.078 0.375 0.078 0.406 0 0.766-0.234 0.938-0.625 0.703-1.75 2.109-3.156 3.859-3.859 0.516-0.219 0.766-0.797 0.547-1.313zM23.641 3.641l0.719 0.719-3.813 3.797 1.062 1.062c0.391 0.391 0.391 1.031 0 1.422l-1 1c0.875 1.578 1.391 3.406 1.391 5.359 0 6.078-4.922 11-11 11s-11-4.922-11-11 4.922-11 11-11c1.953 0 3.781 0.516 5.359 1.391l1-1c0.391-0.391 1.031-0.391 1.422 0l1.062 1.062zM23.766 2.766c-0.094 0.094-0.219 0.156-0.344 0.156-0.141 0-0.266-0.063-0.359-0.156l-1.422-1.406c-0.187-0.203-0.187-0.516 0-0.719 0.203-0.187 0.516-0.187 0.719 0l1.406 1.422c0.203 0.187 0.203 0.516 0 0.703zM27.359 6.359c-0.109 0.094-0.234 0.141-0.359 0.141s-0.25-0.047-0.359-0.141l-1.406-1.422c-0.203-0.187-0.203-0.516 0-0.703 0.187-0.203 0.516-0.203 0.703 0l1.422 1.406c0.187 0.203 0.187 0.516 0 0.719zM28 3.5c0 0.281-0.219 0.5-0.5 0.5h-1.5c-0.281 0-0.5-0.219-0.5-0.5s0.219-0.5 0.5-0.5h1.5c0.281 0 0.5 0.219 0.5 0.5zM25 0.5v1.5c0 0.281-0.219 0.5-0.5 0.5s-0.5-0.219-0.5-0.5v-1.5c0-0.281 0.219-0.5 0.5-0.5s0.5 0.219 0.5 0.5zM27.359 1.359l-1.422 1.406c-0.094 0.094-0.219 0.156-0.344 0.156-0.141 0-0.266-0.063-0.359-0.156-0.203-0.187-0.203-0.516 0-0.703l1.406-1.422c0.203-0.187 0.516-0.187 0.719 0 0.187 0.203 0.187 0.516 0 0.719z"></path>
</symbol>
<symbol id="icon-flag1" viewBox="0 0 20 20">
<title>flag1</title>
<path d="M18.926 5.584c-9.339 13.568-6.142-0.26-14.037 6.357l1.795 7.059h-2.019l-3.665-14.41 1.85-0.664c8.849-6.471 4.228 5.82 15.637 1.254 0.364-0.147 0.655 0.090 0.439 0.404z"></path>
</symbol>
<symbol id="icon-flag2" viewBox="0 0 32 32">
<title>flag2</title>
<path d="M0 0h4v32h-4v-32z"></path>
<path d="M26 20.094c2.582 0 4.83-0.625 6-1.547v-16c-1.17 0.922-3.418 1.547-6 1.547s-4.83-0.625-6-1.547v16c1.17 0.922 3.418 1.547 6 1.547z"></path>
<path d="M19 1.016c-1.466-0.623-3.61-1.016-6-1.016-3.012 0-5.635 0.625-7 1.547v16c1.365-0.922 3.988-1.547 7-1.547 2.39 0 4.534 0.393 6 1.016v-16z"></path>
</symbol>
<symbol id="icon-happy" viewBox="0 0 32 32">
<title>happy</title>
<path d="M16 32c8.837 0 16-7.163 16-16s-7.163-16-16-16-16 7.163-16 16 7.163 16 16 16zM16 3c7.18 0 13 5.82 13 13s-5.82 13-13 13-13-5.82-13-13 5.82-13 13-13zM16 18.711c3.623 0 7.070-0.963 10-2.654-0.455 5.576-4.785 9.942-10 9.942s-9.544-4.371-10-9.947c2.93 1.691 6.377 2.658 10 2.658zM8 11c0-1.657 0.895-3 2-3s2 1.343 2 3c0 1.657-0.895 3-2 3s-2-1.343-2-3zM20 11c0-1.657 0.895-3 2-3s2 1.343 2 3c0 1.657-0.895 3-2 3s-2-1.343-2-3z"></path>
</symbol>
<symbol id="icon-sad" viewBox="0 0 32 32">
<title>sad</title>
<path d="M16 32c8.837 0 16-7.163 16-16s-7.163-16-16-16-16 7.163-16 16 7.163 16 16 16zM16 3c7.18 0 13 5.82 13 13s-5.82 13-13 13-13-5.82-13-13 5.82-13 13-13zM8 10c0-1.105 0.895-2 2-2s2 0.895 2 2c0 1.105-0.895 2-2 2s-2-0.895-2-2zM20 10c0-1.105 0.895-2 2-2s2 0.895 2 2c0 1.105-0.895 2-2 2s-2-0.895-2-2zM9.997 24.398l-2.573-1.544c1.749-2.908 4.935-4.855 8.576-4.855s6.827 1.946 8.576 4.855l-2.573 1.544c-1.224-2.036-3.454-3.398-6.003-3.398s-4.779 1.362-6.003 3.398z"></path>
</symbol>
<symbol id="icon-shocked" viewBox="0 0 32 32">
<title>shocked</title>
<path d="M16 32c8.837 0 16-7.163 16-16s-7.163-16-16-16-16 7.163-16 16 7.163 16 16 16zM16 3c7.18 0 13 5.82 13 13s-5.82 13-13 13-13-5.82-13-13 5.82-13 13-13zM12 22c0-2.209 1.791-4 4-4s4 1.791 4 4c0 2.209-1.791 4-4 4s-4-1.791-4-4zM20 11c0-1.657 0.895-3 2-3s2 1.343 2 3c0 1.657-0.895 3-2 3s-2-1.343-2-3zM8 11c0-1.657 0.895-3 2-3s2 1.343 2 3c0 1.657-0.895 3-2 3s-2-1.343-2-3z"></path>
</symbol>
</defs>
</svg>
